<svg width="41" height="41" viewBox="0 0 41 41" fill="none" xmlns="http://www.w3.org/2000/svg">
<path d="M15.375 5.125C15.8281 5.125 16.2626 5.30498 16.583 5.62536C16.9033 5.94573 17.0833 6.38026 17.0833 6.83333V34.1667C17.0833 34.6197 16.9033 35.0543 16.583 35.3746C16.2626 35.695 15.8281 35.875 15.375 35.875H11.9583C11.5053 35.875 11.0707 35.695 10.7504 35.3746C10.43 35.0543 10.25 34.6197 10.25 34.1667V6.83333C10.25 6.38026 10.43 5.94573 10.7504 5.62536C11.0707 5.30498 11.5053 5.125 11.9583 5.125H15.375ZM29.0417 5.125C29.4947 5.125 29.9293 5.30498 30.2496 5.62536C30.57 5.94573 30.75 6.38026 30.75 6.83333V34.1667C30.75 34.6197 30.57 35.0543 30.2496 35.3746C29.9293 35.695 29.4947 35.875 29.0417 35.875H25.625C25.1719 35.875 24.7374 35.695 24.417 35.3746C24.0967 35.0543 23.9167 34.6197 23.9167 34.1667V6.83333C23.9167 6.38026 24.0967 5.94573 24.417 5.62536C24.7374 5.30498 25.1719 5.125 25.625 5.125H29.0417Z" fill="#E8442D"/>
</svg>
