<svg width="314" height="56" viewBox="0 0 314 56" fill="none" xmlns="http://www.w3.org/2000/svg">
<circle cx="21.5" cy="28" r="21.5" fill="#4F7FD6"/>
<path d="M64.68 42.28C62.0933 42.28 59.7067 41.68 57.52 40.48C55.36 39.2533 53.64 37.56 52.36 35.4C51.1067 33.2133 50.48 30.76 50.48 28.04C50.48 25.32 51.1067 22.88 52.36 20.72C53.64 18.56 55.36 16.88 57.52 15.68C59.7067 14.4533 62.0933 13.84 64.68 13.84C67.2933 13.84 69.68 14.4533 71.84 15.68C74.0267 16.88 75.7467 18.56 77 20.72C78.2533 22.88 78.88 25.32 78.88 28.04C78.88 30.76 78.2533 33.2133 77 35.4C75.7467 37.56 74.0267 39.2533 71.84 40.48C69.68 41.68 67.2933 42.28 64.68 42.28ZM64.68 38.32C66.52 38.32 68.16 37.9067 69.6 37.08C71.04 36.2267 72.16 35.0267 72.96 33.48C73.7867 31.9067 74.2 30.0933 74.2 28.04C74.2 25.9867 73.7867 24.1867 72.96 22.64C72.16 21.0933 71.04 19.9067 69.6 19.08C68.16 18.2533 66.52 17.84 64.68 17.84C62.84 17.84 61.2 18.2533 59.76 19.08C58.32 19.9067 57.1867 21.0933 56.36 22.64C55.56 24.1867 55.16 25.9867 55.16 28.04C55.16 30.0933 55.56 31.9067 56.36 33.48C57.1867 35.0267 58.32 36.2267 59.76 37.08C61.2 37.9067 62.84 38.32 64.68 38.32ZM103.327 19.96V42H98.7672V39.4C98.0472 40.3067 97.1005 41.0267 95.9272 41.56C94.7805 42.0667 93.5539 42.32 92.2472 42.32C90.5139 42.32 88.9539 41.96 87.5672 41.24C86.2072 40.52 85.1272 39.4533 84.3272 38.04C83.5539 36.6267 83.1672 34.92 83.1672 32.92V19.96H87.6872V32.24C87.6872 34.2133 88.1805 35.7333 89.1672 36.8C90.1539 37.84 91.5005 38.36 93.2072 38.36C94.9139 38.36 96.2605 37.84 97.2472 36.8C98.2605 35.7333 98.7672 34.2133 98.7672 32.24V19.96H103.327ZM114.664 23.68V35.88C114.664 36.7067 114.85 37.3067 115.224 37.68C115.624 38.0267 116.29 38.2 117.224 38.2H120.024V42H116.424C114.37 42 112.797 41.52 111.704 40.56C110.61 39.6 110.064 38.04 110.064 35.88V23.68H107.464V19.96H110.064V14.48H114.664V19.96H120.024V23.68H114.664ZM122.707 30.96C122.707 28.6933 123.16 26.7067 124.067 25C125 23.2667 126.28 21.9333 127.907 21C129.533 20.0667 131.4 19.6 133.507 19.6C136.173 19.6 138.373 20.24 140.107 21.52C141.867 22.7733 143.053 24.5733 143.667 26.92H138.747C138.347 25.8267 137.707 24.9733 136.827 24.36C135.947 23.7467 134.84 23.44 133.507 23.44C131.64 23.44 130.147 24.1067 129.027 25.44C127.933 26.7467 127.387 28.5867 127.387 30.96C127.387 33.3333 127.933 35.1867 129.027 36.52C130.147 37.8533 131.64 38.52 133.507 38.52C136.147 38.52 137.893 37.36 138.747 35.04H143.667C143.027 37.28 141.827 39.0667 140.067 40.4C138.307 41.7067 136.12 42.36 133.507 42.36C131.4 42.36 129.533 41.8933 127.907 40.96C126.28 40 125 38.6667 124.067 36.96C123.16 35.2267 122.707 33.2267 122.707 30.96ZM157.771 42.36C155.691 42.36 153.811 41.8933 152.131 40.96C150.451 40 149.131 38.6667 148.171 36.96C147.211 35.2267 146.731 33.2267 146.731 30.96C146.731 28.72 147.224 26.7333 148.211 25C149.198 23.2667 150.544 21.9333 152.251 21C153.958 20.0667 155.864 19.6 157.971 19.6C160.078 19.6 161.984 20.0667 163.691 21C165.398 21.9333 166.744 23.2667 167.731 25C168.718 26.7333 169.211 28.72 169.211 30.96C169.211 33.2 168.704 35.1867 167.691 36.92C166.678 38.6533 165.291 40 163.531 40.96C161.798 41.8933 159.878 42.36 157.771 42.36ZM157.771 38.4C158.944 38.4 160.038 38.12 161.051 37.56C162.091 37 162.931 36.16 163.571 35.04C164.211 33.92 164.531 32.56 164.531 30.96C164.531 29.36 164.224 28.0133 163.611 26.92C162.998 25.8 162.184 24.96 161.171 24.4C160.158 23.84 159.064 23.56 157.891 23.56C156.718 23.56 155.624 23.84 154.611 24.4C153.624 24.96 152.838 25.8 152.251 26.92C151.664 28.0133 151.371 29.36 151.371 30.96C151.371 33.3333 151.971 35.1733 153.171 36.48C154.398 37.76 155.931 38.4 157.771 38.4ZM200.399 19.6C202.132 19.6 203.679 19.96 205.039 20.68C206.425 21.4 207.505 22.4667 208.279 23.88C209.079 25.2933 209.479 27 209.479 29V42H204.959V29.68C204.959 27.7067 204.465 26.2 203.479 25.16C202.492 24.0933 201.145 23.56 199.439 23.56C197.732 23.56 196.372 24.0933 195.359 25.16C194.372 26.2 193.879 27.7067 193.879 29.68V42H189.359V29.68C189.359 27.7067 188.865 26.2 187.879 25.16C186.892 24.0933 185.545 23.56 183.839 23.56C182.132 23.56 180.772 24.0933 179.759 25.16C178.772 26.2 178.279 27.7067 178.279 29.68V42H173.719V19.96H178.279V22.48C179.025 21.5733 179.972 20.8667 181.119 20.36C182.265 19.8533 183.492 19.6 184.799 19.6C186.559 19.6 188.132 19.9733 189.519 20.72C190.905 21.4667 191.972 22.5467 192.719 23.96C193.385 22.6267 194.425 21.5733 195.839 20.8C197.252 20 198.772 19.6 200.399 19.6ZM235.481 30.44C235.481 31.2667 235.428 32.0133 235.321 32.68H218.481C218.615 34.44 219.268 35.8533 220.441 36.92C221.615 37.9867 223.055 38.52 224.761 38.52C227.215 38.52 228.948 37.4933 229.961 35.44H234.881C234.215 37.4667 233.001 39.1333 231.241 40.44C229.508 41.72 227.348 42.36 224.761 42.36C222.655 42.36 220.761 41.8933 219.081 40.96C217.428 40 216.121 38.6667 215.161 36.96C214.228 35.2267 213.761 33.2267 213.761 30.96C213.761 28.6933 214.215 26.7067 215.121 25C216.055 23.2667 217.348 21.9333 219.001 21C220.681 20.0667 222.601 19.6 224.761 19.6C226.841 19.6 228.695 20.0533 230.321 20.96C231.948 21.8667 233.215 23.1467 234.121 24.8C235.028 26.4267 235.481 28.3067 235.481 30.44ZM230.721 29C230.695 27.32 230.095 25.9733 228.921 24.96C227.748 23.9467 226.295 23.44 224.561 23.44C222.988 23.44 221.641 23.9467 220.521 24.96C219.401 25.9467 218.735 27.2933 218.521 29H230.721ZM241.809 42.28C240.982 42.28 240.289 42 239.729 41.44C239.169 40.88 238.889 40.1867 238.889 39.36C238.889 38.5333 239.169 37.84 239.729 37.28C240.289 36.72 240.982 36.44 241.809 36.44C242.609 36.44 243.289 36.72 243.849 37.28C244.409 37.84 244.689 38.5333 244.689 39.36C244.689 40.1867 244.409 40.88 243.849 41.44C243.289 42 242.609 42.28 241.809 42.28ZM254.177 23.24C254.951 22.1733 256.004 21.3067 257.337 20.64C258.697 19.9467 260.204 19.6 261.857 19.6C263.804 19.6 265.564 20.0667 267.137 21C268.711 21.9333 269.951 23.2667 270.857 25C271.764 26.7067 272.217 28.6667 272.217 30.88C272.217 33.0933 271.764 35.08 270.857 36.84C269.951 38.5733 268.697 39.9333 267.097 40.92C265.524 41.88 263.777 42.36 261.857 42.36C260.151 42.36 258.631 42.0267 257.297 41.36C255.991 40.6933 254.951 39.84 254.177 38.8V42H249.617V12.4H254.177V23.24ZM267.577 30.88C267.577 29.36 267.257 28.0533 266.617 26.96C266.004 25.84 265.177 25 264.137 24.44C263.124 23.8533 262.031 23.56 260.857 23.56C259.711 23.56 258.617 23.8533 257.577 24.44C256.564 25.0267 255.737 25.88 255.097 27C254.484 28.12 254.177 29.44 254.177 30.96C254.177 32.48 254.484 33.8133 255.097 34.96C255.737 36.08 256.564 36.9333 257.577 37.52C258.617 38.1067 259.711 38.4 260.857 38.4C262.031 38.4 263.124 38.1067 264.137 37.52C265.177 36.9067 266.004 36.0267 266.617 34.88C267.257 33.7333 267.577 32.4 267.577 30.88ZM296.927 30.44C296.927 31.2667 296.873 32.0133 296.767 32.68H279.927C280.06 34.44 280.713 35.8533 281.887 36.92C283.06 37.9867 284.5 38.52 286.207 38.52C288.66 38.52 290.393 37.4933 291.407 35.44H296.327C295.66 37.4667 294.447 39.1333 292.687 40.44C290.953 41.72 288.793 42.36 286.207 42.36C284.1 42.36 282.207 41.8933 280.527 40.96C278.873 40 277.567 38.6667 276.607 36.96C275.673 35.2267 275.207 33.2267 275.207 30.96C275.207 28.6933 275.66 26.7067 276.567 25C277.5 23.2667 278.793 21.9333 280.447 21C282.127 20.0667 284.047 19.6 286.207 19.6C288.287 19.6 290.14 20.0533 291.767 20.96C293.393 21.8667 294.66 23.1467 295.567 24.8C296.473 26.4267 296.927 28.3067 296.927 30.44ZM292.167 29C292.14 27.32 291.54 25.9733 290.367 24.96C289.193 23.9467 287.74 23.44 286.007 23.44C284.433 23.44 283.087 23.9467 281.967 24.96C280.847 25.9467 280.18 27.2933 279.967 29H292.167ZM306.734 23.68V35.88C306.734 36.7067 306.921 37.3067 307.294 37.68C307.694 38.0267 308.361 38.2 309.294 38.2H312.094V42H308.494C306.441 42 304.867 41.52 303.774 40.56C302.681 39.6 302.134 38.04 302.134 35.88V23.68H299.534V19.96H302.134V14.48H306.734V19.96H312.094V23.68H306.734Z" fill="#1F2937"/>
</svg>
